<svg xmlns="http://www.w3.org/2000/svg" width="600" height="500" viewBox="0 0 600 500" role="img" aria-label="Ilustração de demonstração: cachepot azul com sulcos verticais e uma planta">
  <defs>
    <radialGradient id="bg" cx="68%" cy="27%" r="80%"><stop stop-color="#263547"/><stop offset=".46" stop-color="#151d29"/><stop offset="1" stop-color="#0b0f14"/></radialGradient>
    <linearGradient id="blue" x1="0" x2="1"><stop stop-color="#153775"/><stop offset=".2" stop-color="#2865c5"/><stop offset=".5" stop-color="#4b92fa"/><stop offset=".7" stop-color="#3575d9"/><stop offset="1" stop-color="#193c80"/></linearGradient>
    <linearGradient id="rim" x1="0" y1="0" x2="0" y2="1"><stop stop-color="#84b5ff"/><stop offset="1" stop-color="#265cb5"/></linearGradient>
    <linearGradient id="leaf" x1="0" y1="0" x2="1" y2="1"><stop stop-color="#9faa98"/><stop offset=".45" stop-color="#647e68"/><stop offset="1" stop-color="#233d36"/></linearGradient>
    <linearGradient id="leaf2" x1="0" y1="0" x2="1" y2="1"><stop stop-color="#6d8b73"/><stop offset=".5" stop-color="#426b50"/><stop offset="1" stop-color="#182f28"/></linearGradient>
    <linearGradient id="leaf3" x1="0" y1="0" x2="1" y2=".3"><stop stop-color="#a3b79f"/><stop offset="1" stop-color="#365940"/></linearGradient>
    <pattern id="layers" width="4" height="3.5" patternUnits="userSpaceOnUse"><path d="M0 1h4" stroke="#b6d4ff" opacity=".07" stroke-width=".55"/></pattern>
    <clipPath id="pot"><path d="M204 276q-1-18 96-18t96 18l-18 102q-7 26-78 27t-78-27Z"/></clipPath>
    <filter id="blur"><feGaussianBlur stdDeviation="13"/></filter>
    <filter id="soft"><feGaussianBlur stdDeviation="3"/></filter>
  </defs>
  <path fill="url(#bg)" d="M0 0h600v500H0z"/>
  <path d="M0 383 600 353v147H0Z" fill="#0e1621" opacity=".65"/>
  <ellipse cx="319" cy="398" rx="142" ry="23" fill="#03060b" opacity=".85" filter="url(#blur)"/>
  <ellipse cx="300" cy="402" rx="80" ry="9" fill="#000" opacity=".7" filter="url(#soft)"/>
  <ellipse cx="300" cy="277" rx="96" ry="31" fill="url(#rim)"/>
  <ellipse cx="300" cy="273" rx="82" ry="24" fill="#12202b"/>
  <ellipse cx="300" cy="272" rx="76" ry="20" fill="#273029"/>
  <path d="M264 271q32-3 73 6" fill="none" stroke="#74624b" stroke-width="1" opacity=".5"/>
  <!-- Stems and broad sculptural leaves. -->
  <path d="M300 278c1-41-5-84-9-133M304 276c15-40 31-68 50-91M295 273c-15-43-37-75-61-97M300 269c1-45 11-91 29-120M291 277c-23-31-42-46-66-60" fill="none" stroke="#5d765f" stroke-width="5" stroke-linecap="round"/>
  <path d="M289 173c-40-7-51-41-38-79 31 3 47 32 38 79Z" fill="url(#leaf)"/>
  <path d="M289 173c-6-38-23-68-38-79" fill="none" stroke="#afc1a8" opacity=".4"/>
  <path d="M320 185c-9-43 4-73 38-89 17 40 5 75-38 89Z" fill="url(#leaf3)"/>
  <path d="M320 185c11-42 23-66 38-89" fill="none" stroke="#d1d7bb" opacity=".25"/>
  <path d="M256 204c-35 7-68-10-78-48 39-12 69 5 78 48Z" fill="url(#leaf2)"/>
  <path d="M256 204c-24-23-46-41-78-48" fill="none" stroke="#9fbb9e" opacity=".32"/>
  <path d="M343 217c-5-43 22-70 65-65-2 38-24 60-65 65Z" fill="url(#leaf)"/>
  <path d="M343 217c23-32 39-49 65-65" fill="none" stroke="#c0cdb3" opacity=".36"/>
  <path d="M294 211c-28-15-32-48-15-78 27 18 33 51 15 78Z" fill="url(#leaf2)"/>
  <path d="M294 211c-3-29-9-54-15-78" fill="none" stroke="#adc6a3" opacity=".24"/>
  <path d="M270 246c-29 8-61-5-78-35 36-17 66-3 78 35Z" fill="url(#leaf3)"/>
  <path d="M270 246c-25-14-48-26-78-35" fill="none" stroke="#e0e6ca" opacity=".21"/>
  <path d="M319 255c8-38 40-54 74-41-10 36-33 49-74 41Z" fill="url(#leaf2)"/>
  <path d="M319 255c27-22 51-34 74-41" fill="none" stroke="#94b795" opacity=".3"/>
  <path d="M298 249c-21-24-16-53 10-79 20 25 15 55-10 79Z" fill="url(#leaf)"/>
  <path d="M298 249c4-29 6-55 10-79" fill="none" stroke="#ced3b9" opacity=".29"/>
  <!-- Tapered fluted pot. -->
  <path d="M204 276q-1 26 96 26t96-26l-18 102q-7 26-78 27t-78-27Z" fill="url(#blue)"/>
  <g fill="none" clip-path="url(#pot)">
    <path d="m210 281 19 109m-7-104 16 112m-2-107 13 110m0-107 9 112m5-108 6 111m9-108 3 111m10-110 1 111m11-111-1 111m13-113-5 112m17-115-8 113m21-119-11 116m23-125-14 119m24-131-17 120m23-133-19 118" stroke="#10366f" stroke-width="5.5" opacity=".55"/>
    <path d="m213 282 19 109m-7-104 16 112m-2-107 13 110m0-107 9 112m5-108 6 111m9-108 3 111m10-110 1 111m11-111-1 111m13-113-5 112m17-115-8 113m21-119-11 116m23-125-14 119m24-131-17 120m23-133-19 118" stroke="#9dc6ff" stroke-width="1.4" opacity=".38"/>
  </g>
  <path d="M204 276q-1 26 96 26t96-26l-18 102q-7 26-78 27t-78-27Z" fill="url(#layers)" clip-path="url(#pot)"/>
  <path d="M205 276q0 27 95 27t95-27" fill="none" stroke="#9ec6ff" stroke-width="1.5" opacity=".65"/>
  <path d="M222 378q7 25 78 26t78-26" fill="none" stroke="#15356a" stroke-width="1.5" opacity=".6"/>
  <ellipse cx="309" cy="407" rx="71" ry="5" fill="#3b82f6" opacity=".09" filter="url(#soft)"/>
</svg>
